<svg width="50" height="50" viewBox="0 0 50 50" fill="none" xmlns="http://www.w3.org/2000/svg">
<path fill-rule="evenodd" clip-rule="evenodd" d="M9.98241 48.5716C5.67076 46.729 2.30809 43.249 0.762348 38.9106C0.100176 37.0522 -0.0518451 35.0884 0.0140698 32.8451C0.078481 30.653 0.36385 27.9555 0.721169 24.5778L1.2302 19.7658C1.25201 19.5595 1.27345 19.3562 1.2946 19.1556C1.80202 14.3419 2.13959 11.1395 3.46971 8.52192C5.43812 4.64824 8.90774 1.70399 13.0904 0.268933C16.4457 -0.882297 19.3147 1.85672 19.3147 4.79611V6.62754C19.3147 6.93528 19.3148 7.17911 19.3178 7.38973C19.554 7.39461 19.8629 7.39534 20.2922 7.39534H29.7078C30.1371 7.39534 30.446 7.39461 30.6822 7.38973C30.6852 7.17911 30.6853 6.93528 30.6853 6.62754V4.79611C30.6853 1.85672 33.5543 -0.882291 36.9096 0.268933C41.0923 1.70399 44.5619 4.64824 46.5303 8.52192C47.8604 11.1395 48.198 14.3419 48.7054 19.1555C48.7266 19.3561 48.748 19.5595 48.7698 19.7658L49.2788 24.5778C49.6362 27.9555 49.9215 30.653 49.9859 32.8451C50.0518 35.0884 49.8998 37.0522 49.2377 38.9106C47.6919 43.249 44.3292 46.729 40.0176 48.5716C38.1896 49.3528 36.1987 49.6845 33.8604 49.8437C31.5645 50 28.7117 50 25.106 50H24.894C21.2882 50 18.4355 50 16.1396 49.8437C13.8013 49.6845 11.8104 49.3528 9.98241 48.5716ZM8.08475 34.2675C7.64994 33.396 7.40682 32.4222 7.40682 31.3947H11.2108C11.2108 33.1325 12.7009 34.5412 14.5392 34.5412C16.3774 34.5412 17.8676 33.1325 17.8676 31.3947H21.6716C21.6716 32.4222 21.4285 33.396 20.9936 34.2675C19.8526 36.5545 17.3914 38.1372 14.5392 38.1372C11.687 38.1372 9.22579 36.5545 8.08475 34.2675ZM29.0064 34.2675C28.5716 33.396 28.3284 32.4222 28.3284 31.3947H32.1324C32.1324 33.1325 33.6226 34.5412 35.4608 34.5412C37.2991 34.5412 38.7893 33.1325 38.7893 31.3947H42.5932C42.5932 32.4222 42.3501 33.396 41.9153 34.2675C40.7742 36.5545 38.313 38.1372 35.4608 38.1372C32.6086 38.1372 30.1474 36.5545 29.0064 34.2675ZM16.4412 4.79611C16.4412 3.55241 15.2598 2.56184 14.0231 2.98615C10.516 4.18945 7.64716 6.64381 6.03163 9.82305C4.94542 11.9607 4.65955 14.6631 4.08781 20.0679L3.59108 24.7637C2.85564 31.7161 2.48792 35.1923 3.4693 37.9467C4.73375 41.4955 7.50229 44.3875 11.1119 45.93C13.9134 47.1272 17.6089 47.1272 25 47.1272C32.3911 47.1272 36.0866 47.1272 38.8881 45.93C42.4977 44.3875 45.2663 41.4955 46.5307 37.9467C47.5121 35.1923 47.1444 31.7161 46.4089 24.7637L45.9122 20.0679C45.3405 14.6631 45.0546 11.9607 43.9684 9.82305C42.3528 6.64381 39.484 4.18945 35.9769 2.98615C34.7402 2.56185 33.5588 3.55241 33.5588 4.79611V6.62754C33.5588 7.92834 33.5588 8.57874 33.2827 9.07203C33.0596 9.4704 32.715 9.79616 32.2936 10.007C31.7718 10.2681 31.0838 10.2681 29.7078 10.2681H20.2922C18.9162 10.2681 18.2282 10.2681 17.7064 10.007C17.285 9.79616 16.9404 9.4704 16.7174 9.07203C16.4412 8.57874 16.4412 7.92834 16.4412 6.62754V4.79611Z" fill="#ECE1CF"/>
</svg>
